<?xml version="1.0" encoding="utf-8"?>
<!-- Generator: Adobe Illustrator 27.1.1, SVG Export Plug-In . SVG Version: 6.00 Build 0)  -->
<svg version="1.1" id="Layer_1" xmlns="http://www.w3.org/2000/svg" xmlns:xlink="http://www.w3.org/1999/xlink" x="0px" y="0px"  width="322.5203" height="57.727"
	 viewBox="0 0 322.5 57.7" style="enable-background:new 0 0 322.5 57.7;" xml:space="preserve">
<style type="text/css">
	.st0{fill:#00205C;}
	.st1{fill:#00194A;}
</style>
<g>
	<path class="st0" d="M169.6,20.9v4.5h-2.5V21l-4.4-6.9h3l2.7,4.5l2.8-4.5h2.9L169.6,20.9z"/>
	<path class="st0" d="M175.7,25.4V14.1h2.5v11.4H175.7z"/>
	<path class="st0" d="M181.1,25.4V14.1h2.5v9.1h5.7v2.3H181.1z"/>
	<path class="st0" d="M201.2,22c-0.3,0.7-0.7,1.3-1.2,1.8c-0.5,0.5-1.1,0.9-1.9,1.2c-0.7,0.3-1.6,0.4-2.4,0.4h-4.5V14.1h4.5
		c0.9,0,1.7,0.2,2.4,0.4c0.7,0.3,1.4,0.7,1.9,1.2c0.5,0.5,1,1.1,1.2,1.8c0.3,0.7,0.4,1.4,0.4,2.3l0,0
		C201.6,20.5,201.4,21.3,201.2,22z M199,19.7c0-0.5-0.1-1-0.3-1.4c-0.2-0.4-0.4-0.8-0.7-1s-0.7-0.5-1-0.7c-0.4-0.2-0.9-0.3-1.4-0.3
		h-1.9v6.9h1.9c0.5,0,1-0.1,1.4-0.3c0.4-0.2,0.8-0.4,1-0.7c0.3-0.3,0.5-0.7,0.7-1C198.9,20.8,199,20.3,199,19.7L199,19.7z"/>
	<path class="st0" d="M204,25.4V14.1h2.5v11.4H204z"/>
	<path class="st0" d="M208.9,25.4v-1.9l6.3-7.3h-6v-2.2h9.3V16l-6.3,7.3h6.3v2.2C218.5,25.4,208.9,25.4,208.9,25.4z"/>
	<path class="st0" d="M230.9,16.3v9.1h-2.5v-9.1h-3.5v-2.3h9.4v2.3H230.9z"/>
	<path class="st0" d="M236.2,25.4V14.1h8.6v2.2h-6.1v2.3h5.3v2.2h-5.3v2.4h6.2v2.2h-8.6V25.4z"/>
	<path class="st0" d="M256.2,24.5c-0.3,0.3-0.7,0.4-1,0.6c-0.3,0.2-0.8,0.3-1.2,0.4c-0.4,0.1-1,0.2-1.5,0.2c-0.9,0-1.6-0.2-2.4-0.4
		c-0.7-0.3-1.3-0.7-1.8-1.2c-0.5-0.5-1-1.1-1.2-1.8c-0.3-0.7-0.4-1.5-0.4-2.3l0,0c0-0.8,0.2-1.6,0.4-2.3c0.3-0.7,0.7-1.3,1.2-1.8
		c0.5-0.5,1.1-1,1.8-1.3c0.7-0.3,1.5-0.4,2.4-0.4c0.5,0,1,0,1.5,0.1s0.9,0.2,1.2,0.3c0.3,0.2,0.7,0.3,1,0.5c0.3,0.2,0.6,0.4,0.9,0.7
		l-1.6,1.8c-0.4-0.4-0.9-0.7-1.4-1c-0.4-0.3-1-0.3-1.6-0.3c-0.4,0-1,0.1-1.3,0.3c-0.4,0.2-0.8,0.4-1,0.8c-0.3,0.3-0.5,0.7-0.7,1.1
		c-0.2,0.4-0.3,0.9-0.3,1.4l0,0c0,0.5,0.1,1,0.3,1.4c0.2,0.4,0.3,0.8,0.7,1.1c0.3,0.3,0.6,0.6,1,0.8c0.4,0.2,0.9,0.3,1.3,0.3
		c0.6,0,1.2-0.1,1.7-0.3s0.9-0.5,1.3-1l1.6,1.6C256.8,23.9,256.5,24.2,256.2,24.5z"/>
	<path class="st0" d="M266.2,25.4v-4.5h-4.6v4.5h-2.5V14.1h2.5v4.5h4.6v-4.5h2.5v11.4C268.8,25.4,266.2,25.4,266.2,25.4z"/>
	<path class="st0" d="M279.4,25.4l-5.5-7.3v7.3h-2.4V14.1h2.3l5.3,7v-7h2.4v11.4C281.5,25.4,279.4,25.4,279.4,25.4z"/>
	<path class="st0" d="M284.4,25.4V14.1h2.5v11.4H284.4z"/>
	<path class="st0" d="M298.8,24.5c-0.3,0.3-0.7,0.4-1,0.6c-0.3,0.2-0.8,0.3-1.2,0.4c-0.4,0.1-1,0.2-1.5,0.2c-0.9,0-1.6-0.2-2.4-0.4
		s-1.3-0.7-1.8-1.2c-0.5-0.5-1-1.1-1.2-1.8s-0.4-1.5-0.4-2.3l0,0c0-0.8,0.2-1.6,0.4-2.3c0.3-0.7,0.7-1.3,1.2-1.8s1.1-1,1.8-1.3
		c0.7-0.3,1.5-0.4,2.4-0.4c0.5,0,1,0,1.5,0.1s0.9,0.2,1.2,0.3c0.3,0.2,0.7,0.3,1,0.5c0.3,0.2,0.6,0.4,0.9,0.7l-1.6,1.8
		c-0.4-0.4-0.9-0.7-1.4-1c-0.4-0.3-1-0.3-1.6-0.3c-0.4,0-1,0.1-1.3,0.3c-0.4,0.2-0.8,0.4-1,0.8c-0.3,0.3-0.5,0.7-0.7,1.1
		c-0.2,0.4-0.3,0.9-0.3,1.4l0,0c0,0.5,0.1,1,0.3,1.4c0.2,0.4,0.3,0.8,0.7,1.1c0.3,0.3,0.6,0.6,1,0.8c0.4,0.2,0.9,0.3,1.3,0.3
		c0.6,0,1.2-0.1,1.7-0.3c0.4-0.3,0.9-0.5,1.3-1l1.6,1.6C299.4,23.9,299.2,24.2,298.8,24.5z"/>
	<path class="st0" d="M310.2,25.4l-1-2.5h-4.8l-1,2.5h-2.5l4.9-11.4h2.3l4.9,11.4H310.2z M306.8,16.9l-1.5,3.7h3.1L306.8,16.9z"/>
	<path class="st0" d="M314.6,25.4V14.1h2.5v9.1h5.7v2.3H314.6z"/>
</g>
<g>
	<path class="st0" d="M173.3,40.5c-0.3,0.6-0.5,1.1-1,1.6s-1,0.8-1.6,1c-0.6,0.2-1.3,0.3-2.1,0.3c-1.5,0-2.7-0.4-3.6-1.3
		s-1.3-2.1-1.3-3.8v-6.5h2.5v6.5c0,1,0.2,1.7,0.6,2.1s1,0.7,1.8,0.7s1.4-0.3,1.8-0.7s0.6-1.1,0.6-2v-6.6h2.5v6.5
		C173.6,39.2,173.6,39.9,173.3,40.5z"/>
	<path class="st0" d="M184.2,43.2l-5.5-7.3v7.3h-2.4V31.9h2.3l5.3,7v-7h2.4v11.4H184.2z"/>
	<path class="st0" d="M189.2,43.2V31.9h2.5v11.4H189.2z"/>
	<path class="st0" d="M200.4,43.3h-2.2l-4.6-11.4h2.8l3,8l3-8h2.7L200.4,43.3z"/>
	<path class="st0" d="M206.8,43.2V31.9h8.6v2.2h-6.1v2.3h5.3v2.2h-5.3v2.4h6.2v2.2h-8.6V43.2z"/>
	<path class="st0" d="M224.6,43.2l-2.4-3.7h-2v3.7h-2.5V31.9h5.2c1.4,0,2.4,0.3,3.1,1c0.8,0.7,1.1,1.6,1.1,2.8l0,0
		c0,1-0.3,1.7-0.7,2.3s-1,1-1.7,1.3l2.8,4.1L224.6,43.2L224.6,43.2z M224.6,35.8c0-0.5-0.2-1-0.5-1.2c-0.3-0.3-0.8-0.4-1.5-0.4h-2.4
		v3.2h2.5c0.6,0,1.1-0.2,1.4-0.4C224.4,36.7,224.6,36.3,224.6,35.8L224.6,35.8z"/>
	<path class="st0" d="M237.3,41.4c-0.2,0.4-0.5,0.8-0.9,1.1c-0.3,0.3-0.8,0.5-1.3,0.7s-1,0.3-1.7,0.3c-0.9,0-1.7-0.2-2.5-0.4
		c-0.9-0.3-1.6-0.8-2.3-1.4l1.5-1.7c0.5,0.4,1,0.8,1.6,1c0.5,0.3,1.1,0.3,1.8,0.3c0.5,0,1-0.1,1.2-0.3c0.3-0.2,0.4-0.4,0.4-0.8l0,0
		c0-0.2,0-0.3-0.1-0.4c-0.1-0.1-0.2-0.3-0.3-0.3c-0.2-0.1-0.4-0.2-0.7-0.3c-0.3-0.1-0.7-0.3-1.1-0.3c-0.6-0.2-1.1-0.3-1.6-0.4
		s-0.9-0.3-1.2-0.6c-0.3-0.3-0.6-0.6-0.8-1c-0.2-0.3-0.3-0.9-0.3-1.4l0,0c0-0.5,0.1-1,0.3-1.4c0.2-0.4,0.4-0.8,0.8-1
		c0.3-0.3,0.8-0.5,1.2-0.7c0.5-0.2,1-0.3,1.6-0.3c0.9,0,1.6,0.1,2.3,0.3c0.7,0.3,1.3,0.6,1.9,1l-1.3,1.9c-0.5-0.3-1-0.6-1.5-0.8
		c-0.5-0.2-1-0.3-1.5-0.3c-0.5,0-0.9,0.1-1.1,0.3c-0.3,0.2-0.3,0.4-0.3,0.7l0,0c0,0.2,0,0.3,0.1,0.4c0.1,0.2,0.2,0.3,0.3,0.3
		s0.4,0.2,0.8,0.3c0.3,0.1,0.7,0.2,1.2,0.3c0.6,0.2,1,0.3,1.6,0.5c0.4,0.2,0.9,0.4,1.1,0.7c0.3,0.3,0.5,0.6,0.7,1
		c0.2,0.3,0.3,0.8,0.3,1.3l0,0C237.6,40.4,237.5,41,237.3,41.4z"/>
	<path class="st0" d="M239.9,43.2V31.9h2.5v11.4H239.9z"/>
	<path class="st0" d="M250.4,34.2v9.1h-2.5v-9.1h-3.5V32h9.4v2.3H250.4z"/>
	<path class="st0" d="M261.5,38.7v4.5H259v-4.5l-4.4-6.9h3l2.7,4.5l2.8-4.5h2.9L261.5,38.7z"/>
</g>
<g id="Group_44170" transform="translate(-6.326 -6.355)">
	<path id="Path_43684_00000030453647435073840590000003593941562275343236_" class="st1" d="M48.5,34.9l12.9-8.5L46,26.6l4.9-14.6
		l-12.5,9.2L33.8,6.4l-4.5,14.9l-12.5-9.3l4.9,14.7L6.3,26.4l12.6,8.8l-12.5,9l15.5-0.3l-5,14.6l12.5-9.5l4.3,15l4.7-14.9l12.3,9.5
		l-5.3-14.8l15.8,0.4L48.5,34.9z M55.5,28.3L47,33.8l-2.8-2.1l1.1-3.3L55.5,28.3z M47.6,16.3l-3.4,10.3l-4.2,0l-1.1-3.7L47.6,16.3z
		 M33.8,12.5l3,9.7l-3,2.2l-2.9-2.1L33.8,12.5z M20.4,16.8l8.4,6.2l-1.1,3.7l-4.1-0.1L20.4,16.8z M12.5,28.4h9.9l1.2,3.5l-3,2.2
		L12.5,28.4z M12,42.4l8.4-6.1l3.3,2.3l-1.2,3.5L12,42.4z M20.5,53.6l3.4-9.7l4-0.1l1,3.4L20.5,53.6z M33.9,57.8L31,47.9l2.9-2.2
		l2.8,2.2L33.9,57.8z M37.4,46L34,43.4L30.5,46l-1.2-4.1l-4.7,0.1l1.5-4.1l-4-2.8l3.5-2.5l-1.4-4.2H29l1.3-4.3l3.5,2.6l3.5-2.6
		l1.3,4.4l4.9-0.1l-1.3,4l3.2,2.4l-4,2.6l1.4,4.2l-4.2-0.2L37.4,46z M46.6,53L39,47.2l1.1-3.5l3.4,0.1L46.6,53z M44.7,41.8l-1.3-3.6
		l3.5-2.3l8.7,6.5L44.7,41.8z"/>
	<g id="Group_44168_00000168091810865615586870000017651403493470555559_" transform="translate(66.398 17.56)">
		<path id="Path_43685_00000155861147717062843560000018022906204704966544_" class="st1" d="M23.7,0l-7.4,11.1L9,0H-1l13.2,19.8
			l0,0v14.6h8.3V19.8l0,0L29,7.1h9.2v27.3h8.3V7.1h9.7V0H23.7z"/>
		<path id="Path_43686_00000163061539990505756290000009693884727677126016_" class="st1" d="M80.6,0v7.1h6.2l-6.2,6.2v7.5
			c0,0.9-0.1,1.8-0.3,2.7c-0.2,0.8-0.6,1.6-1.1,2.3c-0.5,0.7-1.2,1.2-2,1.6c-1.9,0.8-4,0.8-6,0c-0.8-0.4-1.5-0.9-2-1.6
			c-0.5-0.7-0.9-1.4-1.1-2.3c-0.2-0.9-0.4-1.8-0.4-2.7V0h-8.2v7.1h6.1l-6.1,6.1v8.2c0,1.9,0.3,3.9,1,5.7c0.6,1.6,1.6,3.1,2.9,4.4
			c1.3,1.3,2.9,2.2,4.6,2.8c3.9,1.4,8.2,1.4,12.2,0c1.7-0.6,3.3-1.6,4.7-2.8c1.3-1.2,2.3-2.7,3-4.4c0.7-1.8,1.1-3.7,1-5.7V0H80.6z"
			/>
	</g>
</g>
</svg>
